<svg width="48" height="48" viewBox="0 0 48 48" fill="none" xmlns="http://www.w3.org/2000/svg">
  <path d="M24 36C17.38 30.24 12 25.28 12 19C12 15.69 14.69 13 18 13C20.76 13 23.09 14.81 24 17.23C24.91 14.81 27.24 13 30 13C33.31 13 36 15.69 36 19C36 25.28 30.62 30.24 24 36Z" stroke="currentColor" stroke-width="2" fill="none"/>
  <circle cx="18" cy="17" r="1.5" fill="currentColor"/>
  <circle cx="30" cy="17" r="1.5" fill="currentColor"/>
  <path d="M12 24C10.8954 24 10 23.1046 10 22V18C10 16.8954 10.8954 16 12 16H16C17.1046 16 18 16.8954 18 18V20L14 24H12Z" stroke="currentColor" stroke-width="1.5" fill="none"/>
  <path d="M36 24C37.1046 24 38 23.1046 38 22V18C38 16.8954 37.1046 16 36 16H32C30.8954 16 30 16.8954 30 18V20L34 24H36Z" stroke="currentColor" stroke-width="1.5" fill="none"/>
  <path d="M20 8C20 8 22 6 24 6C26 6 28 8 28 8" stroke="currentColor" stroke-width="1.5" stroke-linecap="round" fill="none"/>
</svg> 